<svg width="24" height="25" viewBox="0 0 24 25" fill="none" xmlns="http://www.w3.org/2000/svg">
<path d="M11.9557 10.856V14.307H16.7477C16.3017 16.5 14.4347 17.76 11.9557 17.76C9.06826 17.7202 6.74838 15.3682 6.74838 12.4805C6.74838 9.59275 9.06826 7.24072 11.9557 7.20098C13.1559 7.19954 14.3192 7.61605 15.2457 8.37898L17.8457 5.77898C14.8633 3.15705 10.5077 2.81981 7.15727 4.95142C3.80683 7.08303 2.26674 11.1712 3.37797 14.9836C4.48919 18.796 7.98466 21.4164 11.9557 21.414C16.4227 21.414 20.4847 18.165 20.4847 12.48C20.4778 11.9326 20.4108 11.3877 20.2847 10.855L11.9557 10.856Z" fill="white"/>
</svg>
